<svg width="189" height="26" viewBox="0 0 189 26" fill="none" xmlns="http://www.w3.org/2000/svg">
<g clip-path="url(#clip0_101_48824)">
<path d="M105.051 0.422852H104.398V25.5157H105.051V0.422852Z" fill="#231F20"/>
<path d="M10.6798 18.3833C10.6798 18.9448 10.6604 19.5592 10.6263 20.2024C10.5922 20.8311 10.4657 21.4215 10.2417 21.9542C10.0276 22.4726 9.69655 22.9142 9.25845 23.2646C8.83496 23.6005 8.20702 23.7733 7.38924 23.7733C6.66881 23.7733 6.07495 23.6437 5.61738 23.3942C5.15494 23.1398 4.78499 22.8182 4.52214 22.439C4.24954 22.0502 4.04996 21.6327 3.93314 21.1863C3.81145 20.7399 3.74816 20.3367 3.74816 19.9912V19.684H0L0.00973549 20.0008C0.058413 21.8774 0.69122 23.351 1.88869 24.3829C3.07642 25.41 4.86288 25.9284 7.1994 25.9284C8.86903 25.9284 10.2174 25.674 11.2056 25.1796C12.1986 24.6757 12.9482 24.0277 13.4398 23.2502C13.9218 22.4822 14.2284 21.6375 14.3501 20.7351C14.4718 19.8616 14.5302 19.036 14.5302 18.2825V0.417969H10.6798V18.3833Z" fill="#231F20"/>
<path d="M54.5528 4.47332C53.3943 3.1918 51.9145 2.11187 50.1475 1.27192C48.3757 0.427174 46.2582 0 43.8584 0C41.4586 0 39.4044 0.422374 37.6958 1.25752C35.9873 2.08787 34.5561 3.15341 33.4463 4.42533C32.3364 5.69725 31.5138 7.11316 30.993 8.63467C30.477 10.1514 30.2141 11.6057 30.2141 12.964C30.2141 14.3223 30.477 15.7382 30.993 17.2405C31.5089 18.7524 32.3364 20.1684 33.4414 21.4499C34.5513 22.7362 35.9824 23.8113 37.6861 24.6561C39.3995 25.5008 41.4781 25.928 43.8535 25.928C45.4599 25.928 46.9397 25.7312 48.254 25.3376C49.5634 24.9441 50.7609 24.4113 51.8074 23.7441C52.854 23.077 53.7789 22.2994 54.548 21.4355C55.3171 20.5715 55.9596 19.6404 56.4513 18.6805C56.9429 17.7205 57.3226 16.7366 57.5757 15.767C57.8288 14.7927 57.9603 13.8471 57.9603 12.964C57.9603 11.6297 57.6779 10.1898 57.1279 8.68267C56.573 7.17076 55.7065 5.75485 54.5528 4.47332ZM43.9314 23.7729C42.5636 23.7729 41.2834 23.5042 40.1248 22.981C38.9663 22.453 37.9441 21.7091 37.0874 20.7635C36.2306 19.818 35.5443 18.6661 35.0575 17.3461C34.5659 16.0214 34.3128 14.5479 34.3128 12.9592C34.3128 11.3705 34.561 9.89699 35.0575 8.57227C35.5492 7.25235 36.2306 6.10522 37.0874 5.15488C37.9392 4.21414 38.9615 3.46539 40.1248 2.93742C41.2834 2.40945 42.5636 2.14547 43.9314 2.14547C45.2993 2.14547 46.56 2.41425 47.7575 2.94222C48.9549 3.47019 50.021 4.21894 50.9215 5.16448C51.822 6.11002 52.5473 7.25715 53.073 8.58187C53.5988 9.90659 53.8665 11.3801 53.8665 12.964C53.8665 14.5479 53.5988 16.0214 53.073 17.3461C52.5473 18.6661 51.822 19.8132 50.9215 20.7635C50.021 21.7091 48.9549 22.4578 47.7575 22.9858C46.5649 23.5138 45.2749 23.7777 43.9314 23.7777V23.7729Z" fill="#231F20"/>
<path d="M88.4276 0.417969L80.9508 13.1276L73.8293 0.417969H69.4629L78.2638 16.017V25.506H82.1093V15.705L91.0611 0.417969H88.4276Z" fill="#231F20"/>
<path d="M23.4955 21.6032L21.8778 23.1984C21.5984 23.4739 21.5984 23.9206 21.8778 24.1962L23.4956 25.7913C23.775 26.0668 24.2281 26.0668 24.5075 25.7913L26.1253 24.1962C26.4047 23.9206 26.4047 23.4739 26.1253 23.1984L24.5075 21.6032C24.2281 21.3277 23.775 21.3277 23.4955 21.6032Z" fill="#231F20"/>
<path d="M63.7775 21.6062L62.1598 23.2013C61.8803 23.4768 61.8803 23.9236 62.1598 24.1991L63.7775 25.7942C64.057 26.0698 64.51 26.0698 64.7895 25.7942L66.4072 24.1991C66.6867 23.9236 66.6867 23.4768 66.4072 23.2013L64.7895 21.6062C64.51 21.3306 64.057 21.3306 63.7775 21.6062Z" fill="#231F20"/>
<path d="M96.9652 4.24709C97.0918 4.2087 97.2135 4.1607 97.3206 4.0983C97.4666 4.01671 97.5932 3.91591 97.6954 3.80072C97.7976 3.68553 97.8755 3.55114 97.9339 3.40235C97.9875 3.25355 98.0167 3.09516 98.0167 2.92717C98.0167 2.72559 97.9826 2.5432 97.9096 2.38001C97.8366 2.21682 97.7295 2.07283 97.5835 1.95283C97.4374 1.83764 97.2524 1.74645 97.0334 1.68885C96.8143 1.63125 96.5564 1.59766 96.2594 1.59766H94.8867V6.11418H95.6461V4.38629H96.0501C96.1426 4.38629 96.1913 4.40068 96.2107 4.41028C96.2448 4.42468 96.274 4.45828 96.3032 4.50148L97.3839 5.95099C97.452 6.05658 97.5591 6.11418 97.6954 6.11418H98.3866L97.0723 4.37189C97.0383 4.32389 97.0042 4.28549 96.9652 4.24709ZM97.1989 3.31115C97.1551 3.41194 97.0918 3.49834 97.0091 3.57034C96.9214 3.64233 96.8144 3.69993 96.6878 3.74312C96.5564 3.78632 96.4006 3.80552 96.2302 3.80552H95.6461V2.22642H96.2594C96.6002 2.22642 96.863 2.28881 97.0285 2.41841C97.194 2.5432 97.2719 2.72559 97.2719 2.97517C97.2719 3.09996 97.2524 3.21036 97.2086 3.31115H97.1989Z" fill="#231F20"/>
<path d="M98.966 1.38194C98.2894 0.705182 97.3304 0.316406 96.3666 0.316406C95.4028 0.316406 94.4439 0.705182 93.7672 1.38194C93.0858 2.0539 92.6915 2.99464 92.6963 3.94498C92.6963 4.89532 93.0906 5.83607 93.7721 6.50323C94.4487 7.17518 95.4028 7.56396 96.3666 7.55916C97.3256 7.56396 98.2845 7.17518 98.9611 6.50323C99.6426 5.83607 100.042 4.89532 100.042 3.94498C100.042 2.99464 99.6523 2.0491 98.966 1.38194ZM98.6496 6.19604C98.0557 6.79121 97.2185 7.13199 96.3666 7.13199C95.5196 7.12719 94.6872 6.77681 94.0982 6.18165C93.5044 5.59128 93.1685 4.77053 93.1734 3.94498C93.1636 3.11943 93.4946 2.29388 94.0885 1.70352C94.6775 1.10836 95.5099 0.753179 96.3618 0.74838C97.2136 0.74838 98.0557 1.09876 98.6496 1.69392C99.2483 2.28908 99.5891 3.11463 99.5793 3.94978C99.5842 4.78493 99.2386 5.61048 98.6399 6.20084L98.6496 6.19604Z" fill="#231F20"/>
<path d="M112.197 10L109.46 1.95H110.081L112.68 9.6435H112.37L115.049 1.95H115.613L118.269 9.6435H117.97L120.592 1.95H121.167L118.442 10H117.821L115.245 2.5595H115.394L112.818 10H112.197ZM122.858 10V1.95H128.24V2.479H123.444V9.471H128.412V10H122.858ZM123.375 6.1705V5.653H127.734V6.1705H123.375ZM130.55 10V1.95H131.137V9.471H135.771V10H130.55ZM137.278 10V1.95H137.864V9.471H142.499V10H137.278ZM144.005 10V1.95H144.499L150.238 9.2755H149.973V1.95H150.56V10H150.077L144.327 2.6745H144.591V10H144.005ZM153.371 10V1.95H158.753V2.479H153.957V9.471H158.925V10H153.371ZM153.888 6.1705V5.653H158.247V6.1705H153.888ZM163.18 10.0575C162.582 10.0575 162.014 9.95783 161.478 9.7585C160.949 9.5515 160.538 9.287 160.247 8.965L160.512 8.528C160.788 8.81167 161.163 9.05317 161.639 9.2525C162.122 9.44417 162.631 9.54 163.168 9.54C163.705 9.54 164.142 9.471 164.479 9.333C164.824 9.18733 165.077 8.99567 165.238 8.758C165.407 8.52033 165.491 8.25583 165.491 7.9645C165.491 7.6195 165.399 7.3435 165.215 7.1365C165.031 6.9295 164.79 6.76467 164.491 6.642C164.192 6.51933 163.866 6.41583 163.513 6.3315C163.16 6.24717 162.804 6.159 162.444 6.067C162.083 5.96733 161.754 5.84083 161.455 5.6875C161.156 5.53417 160.914 5.32717 160.73 5.0665C160.554 4.79817 160.466 4.45317 160.466 4.0315C160.466 3.64817 160.565 3.2955 160.765 2.9735C160.964 2.6515 161.274 2.39083 161.696 2.1915C162.118 1.99217 162.658 1.8925 163.318 1.8925C163.762 1.8925 164.199 1.95767 164.629 2.088C165.066 2.21833 165.437 2.39467 165.744 2.617L165.526 3.0885C165.188 2.8585 164.824 2.68983 164.433 2.5825C164.05 2.4675 163.678 2.41 163.318 2.41C162.804 2.41 162.378 2.48283 162.041 2.6285C161.704 2.77417 161.455 2.96967 161.294 3.215C161.133 3.45267 161.052 3.721 161.052 4.02C161.052 4.365 161.14 4.641 161.317 4.848C161.501 5.055 161.742 5.21983 162.041 5.3425C162.34 5.46517 162.67 5.56867 163.03 5.653C163.39 5.73733 163.747 5.82933 164.1 5.929C164.452 6.021 164.778 6.14367 165.077 6.297C165.376 6.45033 165.618 6.65733 165.802 6.918C165.986 7.17867 166.078 7.516 166.078 7.93C166.078 8.30567 165.974 8.65833 165.767 8.988C165.56 9.31 165.242 9.57067 164.813 9.77C164.391 9.96167 163.847 10.0575 163.18 10.0575ZM170.187 10.0575C169.589 10.0575 169.022 9.95783 168.485 9.7585C167.956 9.5515 167.546 9.287 167.255 8.965L167.519 8.528C167.795 8.81167 168.171 9.05317 168.646 9.2525C169.129 9.44417 169.639 9.54 170.176 9.54C170.713 9.54 171.15 9.471 171.487 9.333C171.832 9.18733 172.085 8.99567 172.246 8.758C172.415 8.52033 172.499 8.25583 172.499 7.9645C172.499 7.6195 172.407 7.3435 172.223 7.1365C172.039 6.9295 171.797 6.76467 171.498 6.642C171.199 6.51933 170.874 6.41583 170.521 6.3315C170.168 6.24717 169.812 6.159 169.451 6.067C169.091 5.96733 168.761 5.84083 168.462 5.6875C168.163 5.53417 167.922 5.32717 167.738 5.0665C167.562 4.79817 167.473 4.45317 167.473 4.0315C167.473 3.64817 167.573 3.2955 167.772 2.9735C167.972 2.6515 168.282 2.39083 168.704 2.1915C169.126 1.99217 169.666 1.8925 170.325 1.8925C170.77 1.8925 171.207 1.95767 171.636 2.088C172.073 2.21833 172.445 2.39467 172.752 2.617L172.533 3.0885C172.196 2.8585 171.832 2.68983 171.441 2.5825C171.058 2.4675 170.686 2.41 170.325 2.41C169.812 2.41 169.386 2.48283 169.049 2.6285C168.712 2.77417 168.462 2.96967 168.301 3.215C168.14 3.45267 168.06 3.721 168.06 4.02C168.06 4.365 168.148 4.641 168.324 4.848C168.508 5.055 168.75 5.21983 169.049 5.3425C169.348 5.46517 169.678 5.56867 170.038 5.653C170.398 5.73733 170.755 5.82933 171.107 5.929C171.46 6.021 171.786 6.14367 172.085 6.297C172.384 6.45033 172.625 6.65733 172.809 6.918C172.993 7.17867 173.085 7.516 173.085 7.93C173.085 8.30567 172.982 8.65833 172.775 8.988C172.568 9.31 172.25 9.57067 171.82 9.77C171.399 9.96167 170.854 10.0575 170.187 10.0575ZM112.519 24.0575C111.921 24.0575 111.354 23.9578 110.817 23.7585C110.288 23.5515 109.878 23.287 109.587 22.965L109.851 22.528C110.127 22.8117 110.503 23.0532 110.978 23.2525C111.461 23.4442 111.971 23.54 112.508 23.54C113.044 23.54 113.481 23.471 113.819 23.333C114.164 23.1873 114.417 22.9957 114.578 22.758C114.746 22.5203 114.831 22.2558 114.831 21.9645C114.831 21.6195 114.739 21.3435 114.555 21.1365C114.371 20.9295 114.129 20.7647 113.83 20.642C113.531 20.5193 113.205 20.4158 112.853 20.3315C112.5 20.2472 112.143 20.159 111.783 20.067C111.423 19.9673 111.093 19.8408 110.794 19.6875C110.495 19.5342 110.254 19.3272 110.07 19.0665C109.893 18.7982 109.805 18.4532 109.805 18.0315C109.805 17.6482 109.905 17.2955 110.104 16.9735C110.303 16.6515 110.614 16.3908 111.036 16.1915C111.457 15.9922 111.998 15.8925 112.657 15.8925C113.102 15.8925 113.539 15.9577 113.968 16.088C114.405 16.2183 114.777 16.3947 115.084 16.617L114.865 17.0885C114.528 16.8585 114.164 16.6898 113.773 16.5825C113.389 16.4675 113.017 16.41 112.657 16.41C112.143 16.41 111.718 16.4828 111.381 16.6285C111.043 16.7742 110.794 16.9697 110.633 17.215C110.472 17.4527 110.392 17.721 110.392 18.02C110.392 18.365 110.48 18.641 110.656 18.848C110.84 19.055 111.082 19.2198 111.381 19.3425C111.68 19.4652 112.009 19.5687 112.37 19.653C112.73 19.7373 113.086 19.8293 113.439 19.929C113.792 20.021 114.118 20.1437 114.417 20.297C114.716 20.4503 114.957 20.6573 115.141 20.918C115.325 21.1787 115.417 21.516 115.417 21.93C115.417 22.3057 115.314 22.6583 115.107 22.988C114.9 23.31 114.581 23.5707 114.152 23.77C113.73 23.9617 113.186 24.0575 112.519 24.0575ZM117.411 24V15.95H120.297C120.972 15.95 121.551 16.0573 122.034 16.272C122.517 16.4867 122.889 16.7972 123.149 17.2035C123.41 17.6022 123.54 18.089 123.54 18.664C123.54 19.2237 123.41 19.7067 123.149 20.113C122.889 20.5193 122.517 20.8298 122.034 21.0445C121.551 21.2592 120.972 21.3665 120.297 21.3665H117.733L117.997 21.0905V24H117.411ZM117.997 21.125L117.733 20.8375H120.297C121.164 20.8375 121.819 20.6497 122.264 20.274C122.716 19.8907 122.942 19.354 122.942 18.664C122.942 17.9663 122.716 17.4297 122.264 17.054C121.819 16.6707 121.164 16.479 120.297 16.479H117.733L117.997 16.1915V21.125ZM123.769 24L127.472 15.95H128.059L131.762 24H131.129L127.633 16.318H127.886L124.402 24H123.769ZM125.126 21.7345L125.322 21.24H130.14L130.336 21.7345H125.126ZM136.515 24.0575C135.917 24.0575 135.361 23.9578 134.848 23.7585C134.342 23.5515 133.901 23.264 133.525 22.896C133.149 22.528 132.858 22.0987 132.651 21.608C132.444 21.1097 132.341 20.5653 132.341 19.975C132.341 19.3847 132.444 18.8442 132.651 18.3535C132.858 17.8552 133.149 17.422 133.525 17.054C133.908 16.686 134.353 16.4023 134.859 16.203C135.365 15.996 135.917 15.8925 136.515 15.8925C137.082 15.8925 137.611 15.9845 138.102 16.1685C138.6 16.3525 139.026 16.6323 139.379 17.008L139.011 17.3875C138.666 17.0502 138.282 16.8087 137.861 16.663C137.447 16.5097 137.006 16.433 136.538 16.433C136.024 16.433 135.545 16.5212 135.101 16.6975C134.664 16.8738 134.28 17.123 133.951 17.445C133.629 17.767 133.376 18.1427 133.192 18.572C133.015 19.0013 132.927 19.469 132.927 19.975C132.927 20.481 133.015 20.9487 133.192 21.378C133.376 21.8073 133.629 22.183 133.951 22.505C134.28 22.827 134.664 23.0762 135.101 23.2525C135.545 23.4288 136.024 23.517 136.538 23.517C137.006 23.517 137.447 23.4442 137.861 23.2985C138.282 23.1452 138.666 22.896 139.011 22.551L139.379 22.9305C139.026 23.3062 138.6 23.5898 138.102 23.7815C137.611 23.9655 137.082 24.0575 136.515 24.0575ZM141.231 24V15.95H146.613V16.479H141.817V23.471H146.785V24H141.231ZM141.748 20.1705V19.653H146.107V20.1705H141.748Z" fill="black"/>
</g>
<defs>
<clipPath id="clip0_101_48824">
<rect width="189" height="26" fill="white"/>
</clipPath>
</defs>
</svg>
